<svg width="64" height="64" viewBox="0 0 64 64" fill="none" xmlns="http://www.w3.org/2000/svg">
<mask id="mask0_35_767" style="mask-type:luminance" maskUnits="userSpaceOnUse" x="1" y="15" width="62" height="34">
<path d="M1.0144 15.9141H62.9984V48.0847H1.0144V15.9141Z" fill="white"/>
</mask>
<g mask="url(#mask0_35_767)">
<mask id="mask1_35_767" style="mask-type:luminance" maskUnits="userSpaceOnUse" x="1" y="15" width="62" height="34">
<path d="M1.0144 32.0044C1.0144 40.8829 14.8902 48.0807 32.0056 48.0807C49.1209 48.0807 62.9967 40.8829 62.9967 32.0044C62.9967 23.1259 49.1209 15.9282 32.0056 15.9282C14.8902 15.9282 1.0144 23.1262 1.0144 32.0044Z" fill="white"/>
</mask>
<g mask="url(#mask1_35_767)">
<mask id="mask2_35_767" style="mask-type:luminance" maskUnits="userSpaceOnUse" x="1" y="15" width="62" height="34">
<path d="M1.0144 32.0039C1.0144 40.8824 14.8902 48.0802 32.0056 48.0802C49.1209 48.0802 62.9967 40.8824 62.9967 32.0039C62.9967 23.1254 49.1209 15.9277 32.0056 15.9277C14.8902 15.9277 1.0144 23.1257 1.0144 32.0039Z" fill="white"/>
</mask>
<g mask="url(#mask2_35_767)">
<path d="M1.0144 15.9277V48.0802H62.9967V15.9277H1.0144Z" fill="url(#paint0_radial_35_767)"/>
</g>
</g>
</g>
<path d="M32.0056 46.8874C48.4529 46.8874 61.7863 40.2244 61.7863 32.0049C61.7863 23.7856 48.4529 17.1226 32.0056 17.1226C15.5584 17.1226 2.2251 23.7856 2.2251 32.0049C2.2251 40.2244 15.5584 46.8874 32.0056 46.8874Z" fill="#777BB3"/>
<path d="M17.8518 33.849C19.2043 33.849 20.2138 33.6031 20.8524 33.1185C21.4844 32.6386 21.9209 31.8073 22.1498 30.6476C22.3631 29.5636 22.2818 28.8068 21.9083 28.3985C21.5264 27.9813 20.7008 27.7696 19.4543 27.7696H17.2931L16.0949 33.8491H17.8518V33.849ZM10.7833 41.3381C10.6829 41.3381 10.5878 41.294 10.5239 41.2175C10.4919 41.1791 10.4698 41.1361 10.4574 41.0881C10.4451 41.0401 10.4438 40.9918 10.4533 40.9433L13.6286 24.8328C13.6323 24.814 13.6376 24.7958 13.6446 24.778C13.6514 24.7601 13.6598 24.743 13.6698 24.7265C13.6796 24.7101 13.6909 24.6946 13.7034 24.6801C13.7161 24.6656 13.7299 24.6523 13.7448 24.6403C13.7598 24.6281 13.7756 24.6173 13.7926 24.6078C13.8094 24.5985 13.8269 24.5905 13.8451 24.584C13.8633 24.5776 13.8819 24.5726 13.9011 24.5695C13.9201 24.5661 13.9394 24.5645 13.9588 24.5645H20.8024C22.9533 24.5645 24.5541 25.1393 25.5604 26.2763C26.5719 27.4181 26.8844 29.0145 26.4888 31.0205C26.3278 31.8378 26.0509 32.5968 25.6661 33.2766C25.2804 33.957 24.7711 34.5865 24.1518 35.148C23.4101 35.8323 22.5708 36.3286 21.6593 36.6206C20.7621 36.9088 19.6103 37.0551 18.2351 37.0551H15.4639L14.6726 41.07C14.6688 41.0886 14.6636 41.107 14.6566 41.1248C14.6498 41.1426 14.6414 41.1598 14.6314 41.1761C14.6216 41.1926 14.6103 41.2081 14.5978 41.2226C14.5851 41.2371 14.5713 41.2505 14.5564 41.2625C14.5414 41.2746 14.5256 41.2855 14.5088 41.295C14.4919 41.3043 14.4744 41.3123 14.4561 41.3188C14.4379 41.3253 14.4193 41.3301 14.4003 41.3335C14.3811 41.3366 14.3619 41.3383 14.3426 41.3383H10.7824L10.7833 41.3381Z" fill="black"/>
<path d="M17.5706 28.1016H19.4546C20.9589 28.1016 21.4816 28.4272 21.6591 28.6211C21.9537 28.9432 22.0092 29.6224 21.8199 30.5851C21.6072 31.6627 21.2129 32.4269 20.6477 32.8559C20.0691 33.2952 19.1284 33.5179 17.8522 33.5179H16.5037L17.5711 28.1016H17.5706ZM20.8022 24.2329H13.9589C13.9202 24.2329 13.8817 24.2362 13.8437 24.2427C13.8056 24.2492 13.7682 24.2591 13.7317 24.2719C13.6952 24.2849 13.6602 24.3007 13.6266 24.3196C13.5929 24.3386 13.5611 24.3601 13.5312 24.3844C13.5014 24.4087 13.4737 24.4354 13.4486 24.4642C13.4234 24.4932 13.4009 24.5242 13.3811 24.5571C13.3612 24.5899 13.3444 24.6241 13.3307 24.6597C13.3169 24.6954 13.3062 24.7321 13.2989 24.7696L10.1236 40.8811C10.1189 40.9051 10.1156 40.9292 10.1136 40.9534C10.1116 40.9777 10.1109 41.0021 10.1116 41.0264C10.1122 41.0509 10.1144 41.0751 10.1177 41.0992C10.1212 41.1234 10.1259 41.1472 10.1321 41.1709C10.1381 41.1946 10.1456 41.2177 10.1542 41.2406C10.1629 41.2634 10.1727 41.2857 10.1839 41.3074C10.1951 41.3292 10.2076 41.3502 10.2211 41.3706C10.2346 41.3911 10.2492 41.4106 10.2649 41.4294C10.2806 41.4482 10.2974 41.4662 10.3151 41.4831C10.3327 41.5001 10.3514 41.5161 10.3709 41.5311C10.3904 41.5461 10.4107 41.5599 10.4317 41.5727C10.4529 41.5854 10.4746 41.5971 10.4969 41.6074C10.5192 41.6177 10.5421 41.6269 10.5656 41.6349C10.5889 41.6427 10.6127 41.6494 10.6367 41.6547C10.6609 41.6601 10.6852 41.6641 10.7099 41.6667C10.7344 41.6694 10.7591 41.6707 10.7837 41.6707H14.3427C14.3814 41.6707 14.4199 41.6676 14.4581 41.6609C14.4962 41.6544 14.5336 41.6447 14.5699 41.6317C14.6064 41.6189 14.6414 41.6031 14.6751 41.5841C14.7087 41.5652 14.7406 41.5437 14.7704 41.5194C14.8004 41.4951 14.8279 41.4684 14.8531 41.4394C14.8784 41.4104 14.9009 41.3796 14.9207 41.3467C14.9406 41.3139 14.9572 41.2796 14.9711 41.2439C14.9849 41.2082 14.9956 41.1717 15.0029 41.1342L15.7414 37.3876H18.2354C19.6457 37.3876 20.8331 37.2359 21.7641 36.9369C22.7212 36.6302 23.6024 36.1101 24.3819 35.3912C25.0266 34.8062 25.5587 34.1497 25.9601 33.4394C26.3614 32.7292 26.6517 31.9369 26.8196 31.0849C27.2361 28.9732 26.8977 27.2822 25.8142 26.0592C24.7412 24.8481 23.0551 24.2339 20.8029 24.2339M15.6879 34.1821H17.8527C19.2876 34.1821 20.3564 33.9157 21.0586 33.3824C21.7607 32.8492 22.2346 31.9592 22.4807 30.7122C22.7162 29.5149 22.6091 28.6701 22.1591 28.1777C21.7091 27.6854 20.8072 27.4392 19.4554 27.4392H17.0169L15.6881 34.1819M20.8031 24.8971C22.8619 24.8971 24.3637 25.4297 25.3079 26.4954C26.2519 27.5609 26.5361 29.0484 26.1594 30.9582C26.0044 31.7449 25.7422 32.4641 25.3731 33.1159C25.0039 33.7676 24.5209 34.3641 23.9246 34.9047C23.2139 35.5606 22.4246 36.0277 21.5557 36.3064C20.6871 36.5854 19.5807 36.7244 18.2356 36.7244H15.1872L14.3431 41.0076H10.7842L13.9597 24.8982H20.8036" fill="white"/>
<path d="M34.6489 37.0549C34.5484 37.0549 34.4532 37.0108 34.3895 36.9343C34.3257 36.8578 34.2995 36.7574 34.3189 36.6601L35.7234 29.5318C35.857 28.8539 35.824 28.3673 35.6307 28.1616C35.5124 28.0359 35.1567 27.8253 34.1054 27.8253H31.5607L29.7947 36.7864C29.791 36.8053 29.7857 36.8236 29.7789 36.8414C29.7719 36.8593 29.7635 36.8764 29.7537 36.8928C29.7437 36.9093 29.7325 36.9246 29.7199 36.9391C29.7072 36.9536 29.6935 36.9669 29.6785 36.9791C29.6635 36.9913 29.6477 37.0021 29.6309 37.0116C29.614 37.0209 29.5965 37.0289 29.5782 37.0354C29.56 37.0418 29.5414 37.0468 29.5224 37.0499C29.5032 37.0533 29.484 37.0549 29.4645 37.0549H25.9337C25.9089 37.0549 25.8844 37.0523 25.8602 37.0469C25.836 37.0416 25.8127 37.0336 25.7904 37.0233C25.7679 37.0128 25.7469 37.0001 25.7272 36.9851C25.7077 36.9701 25.69 36.9531 25.6742 36.9343C25.6585 36.9154 25.645 36.8951 25.6337 36.8733C25.6225 36.8514 25.6139 36.8286 25.6079 36.8049C25.6017 36.7813 25.5984 36.7571 25.5975 36.7328C25.5969 36.7083 25.5989 36.6841 25.6035 36.6601L28.7789 20.5496C28.7827 20.5308 28.7879 20.5126 28.7949 20.4948C28.8017 20.4768 28.8102 20.4598 28.82 20.4433C28.83 20.4269 28.8412 20.4114 28.8539 20.3969C28.8664 20.3824 28.8802 20.3691 28.8952 20.3569C28.91 20.3449 28.926 20.3341 28.9429 20.3246C28.9597 20.3153 28.9772 20.3073 28.9954 20.3008C29.0137 20.2942 29.0324 20.2894 29.0514 20.2863C29.0705 20.2829 29.0897 20.2812 29.109 20.2812H32.64C32.6647 20.2812 32.6892 20.2839 32.7135 20.2893C32.7377 20.2946 32.761 20.3026 32.7834 20.3129C32.8059 20.3234 32.8269 20.3361 32.8464 20.3511C32.866 20.3661 32.8837 20.3831 32.8994 20.4019C32.9152 20.4208 32.9287 20.4411 32.9399 20.4629C32.951 20.4848 32.9597 20.5076 32.9659 20.5313C32.972 20.5549 32.9754 20.5789 32.976 20.6034C32.9769 20.6279 32.9749 20.6521 32.97 20.6761L32.2039 24.5646H34.9414C37.0267 24.5646 38.4409 24.9271 39.2647 25.6729C40.1054 26.4339 40.3662 27.6504 40.0434 29.2898L38.566 36.7868C38.5624 36.8054 38.557 36.8238 38.5502 36.8416C38.5432 36.8594 38.5349 36.8766 38.5249 36.8931C38.515 36.9094 38.5037 36.9249 38.4912 36.9394C38.4785 36.9539 38.4647 36.9673 38.4499 36.9794C38.4349 36.9916 38.419 37.0023 38.4022 37.0118C38.3854 37.0213 38.3679 37.0291 38.3495 37.0356C38.3314 37.0421 38.3127 37.0469 38.2935 37.0503C38.2745 37.0534 38.2552 37.0551 38.2359 37.0551H34.649L34.6489 37.0549Z" fill="black"/>
<path d="M32.6402 19.9494H29.1094C29.0706 19.9494 29.0321 19.9526 28.9939 19.9592C28.9557 19.9657 28.9186 19.9754 28.8821 19.9884C28.8456 20.0012 28.8106 20.0171 28.7769 20.0361C28.7432 20.0549 28.7114 20.0764 28.6816 20.1007C28.6516 20.1251 28.6241 20.1517 28.5989 20.1807C28.5736 20.2097 28.5511 20.2406 28.5312 20.2734C28.5116 20.3062 28.4947 20.3406 28.4809 20.3762C28.4671 20.4119 28.4566 20.4486 28.4491 20.4861L25.2737 36.5964C25.2691 36.6204 25.2657 36.6446 25.2637 36.6687C25.2616 36.6931 25.2611 36.7174 25.2617 36.7417C25.2624 36.7662 25.2644 36.7904 25.2679 36.8146C25.2712 36.8387 25.2761 36.8626 25.2821 36.8862C25.2882 36.9099 25.2956 36.9331 25.3042 36.9559C25.3129 36.9787 25.3229 37.0011 25.3341 37.0227C25.3452 37.0446 25.3576 37.0656 25.3712 37.0861C25.3847 37.1064 25.3994 37.1261 25.4151 37.1447C25.4307 37.1636 25.4476 37.1816 25.4652 37.1986C25.4829 37.2156 25.5016 37.2316 25.5211 37.2464C25.5406 37.2614 25.5609 37.2752 25.5819 37.2881C25.6031 37.3007 25.6247 37.3124 25.6471 37.3227C25.6694 37.3332 25.6924 37.3424 25.7157 37.3502C25.7391 37.3582 25.7629 37.3647 25.7871 37.3701C25.8111 37.3754 25.8354 37.3794 25.8601 37.3821C25.8846 37.3847 25.9092 37.3861 25.9339 37.3861H29.4649C29.5036 37.3861 29.5421 37.3829 29.5802 37.3762C29.6184 37.3697 29.6557 37.3601 29.6921 37.3471C29.7286 37.3342 29.7637 37.3184 29.7974 37.2994C29.8311 37.2806 29.8627 37.2589 29.8927 37.2347C29.9226 37.2104 29.9501 37.1837 29.9754 37.1547C30.0006 37.1257 30.0231 37.0949 30.0429 37.0621C30.0627 37.0292 30.0796 36.9949 30.0932 36.9592C30.1071 36.9236 30.1177 36.8869 30.1251 36.8496L31.8382 28.1564H34.1057C35.1554 28.1564 35.3756 28.3776 35.3844 28.3871C35.4481 28.4544 35.5319 28.7672 35.3936 29.4681L33.9891 36.5964C33.9844 36.6204 33.9811 36.6446 33.9791 36.6687C33.9771 36.6931 33.9764 36.7174 33.9771 36.7417C33.9777 36.7662 33.9799 36.7904 33.9832 36.8146C33.9867 36.8387 33.9914 36.8626 33.9976 36.8862C34.0036 36.9099 34.0109 36.9331 34.0197 36.9559C34.0284 36.9787 34.0382 37.0011 34.0494 37.0227C34.0606 37.0446 34.0731 37.0656 34.0866 37.0861C34.1001 37.1064 34.1147 37.1261 34.1304 37.1449C34.1461 37.1636 34.1629 37.1816 34.1806 37.1986C34.1984 37.2156 34.2169 37.2316 34.2364 37.2464C34.2559 37.2614 34.2762 37.2752 34.2974 37.2881C34.3184 37.3007 34.3401 37.3124 34.3624 37.3227C34.3849 37.3332 34.4077 37.3424 34.4311 37.3502C34.4544 37.3582 34.4782 37.3647 34.5024 37.3701C34.5266 37.3754 34.5509 37.3794 34.5754 37.3821C34.5999 37.3847 34.6246 37.3861 34.6494 37.3861H38.2362C38.2751 37.3861 38.3134 37.3829 38.3516 37.3762C38.3897 37.3697 38.4271 37.3601 38.4636 37.3471C38.5001 37.3342 38.5351 37.3184 38.5687 37.2994C38.6024 37.2806 38.6342 37.2589 38.6641 37.2347C38.6941 37.2104 38.7216 37.1837 38.7467 37.1547C38.7721 37.1257 38.7946 37.0949 38.8142 37.0621C38.8341 37.0292 38.8509 36.9949 38.8647 36.9592C38.8786 36.9236 38.8891 36.8869 38.8966 36.8496L40.3739 29.3524C40.7206 27.5927 40.4241 26.2726 39.4929 25.4284C38.6042 24.6237 37.1156 24.2324 34.9419 24.2324H32.6122L33.3007 20.7391C33.3056 20.7151 33.3089 20.6909 33.3109 20.6666C33.3129 20.6424 33.3136 20.6181 33.3129 20.5936C33.3122 20.5692 33.3101 20.5451 33.3067 20.5209C33.3032 20.4967 33.2986 20.4729 33.2924 20.4492C33.2864 20.4256 33.2789 20.4024 33.2702 20.3796C33.2616 20.3567 33.2517 20.3344 33.2406 20.3126C33.2292 20.2909 33.2169 20.2697 33.2034 20.2494C33.1899 20.2291 33.1752 20.2094 33.1596 20.1906C33.1437 20.1717 33.1271 20.1539 33.1094 20.1369C33.0916 20.1199 33.0731 20.1039 33.0534 20.0889C33.0339 20.0739 33.0137 20.0601 32.9926 20.0474C32.9716 20.0346 32.9497 20.0229 32.9274 20.0126C32.9051 20.0022 32.8822 19.9931 32.8589 19.9851C32.8354 19.9772 32.8117 19.9706 32.7876 19.9652C32.7634 19.9599 32.7391 19.9559 32.7146 19.9532C32.6899 19.9506 32.6652 19.9492 32.6406 19.9492M32.6406 20.6124L31.7966 24.8957H34.9421C36.9212 24.8957 38.2864 25.2364 39.0379 25.9167C39.7894 26.5972 40.0142 27.7009 39.7141 29.2261L38.2366 36.7229H34.6497L36.0542 29.5947C36.2141 28.7839 36.1552 28.2307 35.8777 27.9359C35.6002 27.6409 35.0096 27.4932 34.1062 27.4932H31.2837L29.4649 36.7229H25.9341L29.1094 20.6124H32.6402" fill="white"/>
<path d="M45.6305 33.8493C46.9828 33.8493 47.9925 33.6035 48.6311 33.1188C49.2631 32.639 49.6996 31.8078 49.9285 30.648C50.1418 29.564 50.0605 28.8071 49.687 28.3988C49.305 27.9816 48.4793 27.77 47.233 27.77H45.0718L43.8735 33.8495H45.6303L45.6305 33.8493ZM38.5616 41.3381C38.4613 41.3381 38.3661 41.294 38.3023 41.2175C38.2703 41.1791 38.2481 41.1361 38.2358 41.0881C38.2235 41.0401 38.222 40.9918 38.2316 40.9433L41.407 24.8328C41.4106 24.814 41.416 24.7958 41.4228 24.778C41.4298 24.76 41.4381 24.743 41.4481 24.7265C41.458 24.7101 41.4693 24.6946 41.4818 24.6801C41.4945 24.6656 41.5083 24.6523 41.5231 24.6401C41.5381 24.628 41.554 24.6173 41.5708 24.6078C41.5876 24.5983 41.6053 24.5905 41.6235 24.584C41.6418 24.5775 41.6605 24.5726 41.6795 24.5695C41.6986 24.5661 41.7178 24.5645 41.7371 24.5645H48.5806C50.7318 24.5645 52.3325 25.1393 53.3388 26.2763C54.3505 27.4181 54.6626 29.0143 54.2673 31.0205C54.106 31.8378 53.8293 32.5968 53.4443 33.2766C53.0586 33.957 52.5493 34.5865 51.93 35.148C51.1883 35.8323 50.349 36.3286 49.4375 36.6206C48.5403 36.9088 47.3883 37.0551 46.0133 37.0551H43.2401L42.449 41.07C42.4453 41.0886 42.44 41.107 42.4331 41.1248C42.4263 41.1426 42.4178 41.1598 42.408 41.1763C42.398 41.1926 42.3868 41.2081 42.3741 41.2226C42.3615 41.2371 42.3478 41.2505 42.3328 41.2626C42.3178 41.2748 42.302 41.2856 42.2851 41.295C42.2683 41.3045 42.2508 41.3125 42.2325 41.3188C42.2143 41.3253 42.1956 41.3301 42.1765 41.3335C42.1575 41.3366 42.1381 41.3383 42.1188 41.3383H38.56L38.5616 41.3381Z" fill="black"/>
<path d="M45.3492 28.1016H47.2332C48.7376 28.1016 49.2602 28.4272 49.4377 28.6211C49.7326 28.9432 49.7881 29.6224 49.5986 30.5849C49.3859 31.6626 48.9914 32.4269 48.4264 32.8559C47.8477 33.2952 46.9071 33.5179 45.6307 33.5179H44.2819L45.3492 28.1016ZM48.5807 24.2329H41.7371C41.6984 24.2329 41.6599 24.2362 41.6217 24.2427C41.5837 24.2492 41.5464 24.2591 41.5099 24.2719C41.4734 24.2849 41.4384 24.3007 41.4047 24.3196C41.3711 24.3386 41.3392 24.3601 41.3094 24.3844C41.2796 24.4087 41.2519 24.4354 41.2267 24.4642C41.2016 24.4932 41.1791 24.5242 41.1592 24.5571C41.1394 24.5899 41.1226 24.6241 41.1087 24.6597C41.0951 24.6954 41.0844 24.7321 41.0771 24.7696L37.9014 40.8811C37.8967 40.9051 37.8934 40.9292 37.8914 40.9534C37.8894 40.9777 37.8887 41.0021 37.8894 41.0264C37.8901 41.0509 37.8922 41.0751 37.8956 41.0992C37.8991 41.1234 37.9037 41.1472 37.9099 41.1709C37.9159 41.1946 37.9232 41.2177 37.9321 41.2406C37.9407 41.2634 37.9506 41.2857 37.9617 41.3074C37.9729 41.3292 37.9852 41.3502 37.9989 41.3706C38.0124 41.3911 38.0271 41.4106 38.0427 41.4294C38.0584 41.4482 38.0752 41.4662 38.0929 41.4831C38.1106 41.5001 38.1292 41.5161 38.1487 41.5311C38.1682 41.5461 38.1886 41.5599 38.2096 41.5727C38.2307 41.5854 38.2524 41.5971 38.2747 41.6074C38.2971 41.6177 38.3199 41.6269 38.3434 41.6349C38.3667 41.6427 38.3904 41.6494 38.4146 41.6547C38.4387 41.6601 38.4631 41.6641 38.4876 41.6667C38.5122 41.6694 38.5369 41.6707 38.5616 41.6707H42.1206C42.1592 41.6707 42.1977 41.6676 42.2359 41.6611C42.2741 41.6544 42.3112 41.6447 42.3477 41.6317C42.3842 41.6189 42.4192 41.6031 42.4529 41.5841C42.4866 41.5652 42.5184 41.5437 42.5482 41.5194C42.5782 41.4951 42.6057 41.4684 42.6309 41.4394C42.6562 41.4104 42.6787 41.3796 42.6986 41.3467C42.7182 41.3139 42.7351 41.2796 42.7489 41.2439C42.7627 41.2082 42.7734 41.1717 42.7807 41.1342L43.5191 37.3876H46.0131C47.4234 37.3876 48.6107 37.2359 49.5417 36.9369C50.4991 36.6302 51.3801 36.1101 52.1597 35.3909C52.8046 34.8062 53.3354 34.1497 53.7377 33.4394C54.1402 32.7292 54.4294 31.9369 54.5974 31.0849C55.0137 28.9731 54.6754 27.2821 53.5919 26.0592C52.5189 24.8481 50.8329 24.2339 48.5807 24.2339M43.4657 34.1821H45.6304C47.0652 34.1821 48.1341 33.9157 48.8362 33.3824C49.5384 32.8492 50.0124 31.9592 50.2584 30.7122C50.4941 29.5149 50.3869 28.6701 49.9367 28.1777C49.4867 27.6854 48.5849 27.4392 47.2331 27.4392H44.7947L43.4659 34.1819M48.5807 24.8971C50.6396 24.8971 52.1416 25.4297 53.0856 26.4954C54.0296 27.5609 54.3137 29.0484 53.9371 30.9582C53.7821 31.7449 53.5199 32.4641 53.1507 33.1159C52.7817 33.7676 52.2987 34.3641 51.7024 34.9047C50.9917 35.5606 50.2022 36.0277 49.3336 36.3064C48.4647 36.5854 47.3584 36.7244 46.0134 36.7244H42.9649L42.1209 41.0076H38.5619L41.7372 24.8971H48.5809" fill="white"/>
<defs>
<radialGradient id="paint0_radial_35_767" cx="0" cy="0" r="1" gradientUnits="userSpaceOnUse" gradientTransform="translate(19.6217 21.5794) scale(40.6961 40.1309)">
<stop stop-color="#AEB2D5"/>
<stop offset="0.25" stop-color="#AEB2D5"/>
<stop offset="0.296875" stop-color="#AEB2D5"/>
<stop offset="0.300781" stop-color="#ADB1D4"/>
<stop offset="0.304688" stop-color="#ACB0D4"/>
<stop offset="0.308594" stop-color="#ACB0D3"/>
<stop offset="0.3125" stop-color="#ABAFD2"/>
<stop offset="0.316406" stop-color="#AAAED2"/>
<stop offset="0.320312" stop-color="#A9ADD1"/>
<stop offset="0.324219" stop-color="#A8ACD1"/>
<stop offset="0.328125" stop-color="#A7ABD0"/>
<stop offset="0.332031" stop-color="#A6AACF"/>
<stop offset="0.335938" stop-color="#A5A9CF"/>
<stop offset="0.339844" stop-color="#A4A9CE"/>
<stop offset="0.34375" stop-color="#A4A8CD"/>
<stop offset="0.347656" stop-color="#A3A7CD"/>
<stop offset="0.351562" stop-color="#A2A6CC"/>
<stop offset="0.355469" stop-color="#A1A5CB"/>
<stop offset="0.359375" stop-color="#A0A4CB"/>
<stop offset="0.363281" stop-color="#9FA3CA"/>
<stop offset="0.367188" stop-color="#9EA2C9"/>
<stop offset="0.371094" stop-color="#9DA1C9"/>
<stop offset="0.375" stop-color="#9CA1C8"/>
<stop offset="0.378906" stop-color="#9CA0C7"/>
<stop offset="0.382812" stop-color="#9B9FC7"/>
<stop offset="0.386719" stop-color="#9A9EC6"/>
<stop offset="0.390625" stop-color="#999DC5"/>
<stop offset="0.394531" stop-color="#989CC5"/>
<stop offset="0.398438" stop-color="#979BC4"/>
<stop offset="0.402344" stop-color="#969AC3"/>
<stop offset="0.40625" stop-color="#9599C3"/>
<stop offset="0.410156" stop-color="#9499C2"/>
<stop offset="0.414062" stop-color="#9498C1"/>
<stop offset="0.417969" stop-color="#9397C1"/>
<stop offset="0.421875" stop-color="#9296C0"/>
<stop offset="0.425781" stop-color="#9195BF"/>
<stop offset="0.429688" stop-color="#9094BF"/>
<stop offset="0.433594" stop-color="#8F93BE"/>
<stop offset="0.4375" stop-color="#8E92BD"/>
<stop offset="0.441406" stop-color="#8D91BD"/>
<stop offset="0.445312" stop-color="#8D91BC"/>
<stop offset="0.449219" stop-color="#8C90BB"/>
<stop offset="0.453125" stop-color="#8B8FBB"/>
<stop offset="0.457031" stop-color="#8A8EBA"/>
<stop offset="0.460938" stop-color="#898DB9"/>
<stop offset="0.464844" stop-color="#888CB9"/>
<stop offset="0.46875" stop-color="#878BB8"/>
<stop offset="0.472656" stop-color="#868AB7"/>
<stop offset="0.476562" stop-color="#858AB7"/>
<stop offset="0.480469" stop-color="#8589B6"/>
<stop offset="0.484375" stop-color="#8488B5"/>
<stop offset="0.488281" stop-color="#8387B5"/>
<stop offset="0.492188" stop-color="#8286B4"/>
<stop offset="0.496094" stop-color="#8185B3"/>
<stop offset="0.5" stop-color="#8084B3"/>
<stop offset="0.503906" stop-color="#7F83B2"/>
<stop offset="0.507812" stop-color="#7E82B1"/>
<stop offset="0.511719" stop-color="#7D82B1"/>
<stop offset="0.515625" stop-color="#7D81B0"/>
<stop offset="0.519531" stop-color="#7C80B0"/>
<stop offset="0.523438" stop-color="#7B7FAF"/>
<stop offset="0.527344" stop-color="#7A7EAE"/>
<stop offset="0.53125" stop-color="#797DAE"/>
<stop offset="0.535156" stop-color="#787CAD"/>
<stop offset="0.539062" stop-color="#777BAC"/>
<stop offset="0.542969" stop-color="#767AAC"/>
<stop offset="0.546875" stop-color="#767AAB"/>
<stop offset="0.550781" stop-color="#7579AA"/>
<stop offset="0.554688" stop-color="#7478AA"/>
<stop offset="0.558594" stop-color="#7377A9"/>
<stop offset="0.5625" stop-color="#7276A8"/>
<stop offset="0.566406" stop-color="#7175A8"/>
<stop offset="0.570312" stop-color="#7074A7"/>
<stop offset="0.574219" stop-color="#6F73A6"/>
<stop offset="0.578125" stop-color="#6E73A6"/>
<stop offset="0.582031" stop-color="#6E72A5"/>
<stop offset="0.585938" stop-color="#6D71A4"/>
<stop offset="0.589844" stop-color="#6C70A4"/>
<stop offset="0.59375" stop-color="#6B6FA3"/>
<stop offset="0.597656" stop-color="#6A6EA2"/>
<stop offset="0.601562" stop-color="#696DA2"/>
<stop offset="0.605469" stop-color="#686CA1"/>
<stop offset="0.609375" stop-color="#676BA0"/>
<stop offset="0.613281" stop-color="#666BA0"/>
<stop offset="0.617188" stop-color="#666A9F"/>
<stop offset="0.621094" stop-color="#65699E"/>
<stop offset="0.625" stop-color="#64689E"/>
<stop offset="0.628906" stop-color="#63679D"/>
<stop offset="0.632812" stop-color="#62669C"/>
<stop offset="0.636719" stop-color="#61659C"/>
<stop offset="0.640625" stop-color="#60649B"/>
<stop offset="0.644531" stop-color="#5F639A"/>
<stop offset="0.648438" stop-color="#5E639A"/>
<stop offset="0.652344" stop-color="#5E6299"/>
<stop offset="0.65625" stop-color="#5D6198"/>
<stop offset="0.660156" stop-color="#5C6098"/>
<stop offset="0.664062" stop-color="#5B5F97"/>
<stop offset="0.667969" stop-color="#5A5E96"/>
<stop offset="0.671875" stop-color="#595D96"/>
<stop offset="0.675781" stop-color="#585C95"/>
<stop offset="0.679688" stop-color="#575B94"/>
<stop offset="0.683594" stop-color="#575B94"/>
<stop offset="0.6875" stop-color="#565A93"/>
<stop offset="0.691406" stop-color="#555992"/>
<stop offset="0.695312" stop-color="#545892"/>
<stop offset="0.699219" stop-color="#535791"/>
<stop offset="0.703125" stop-color="#525691"/>
<stop offset="0.707031" stop-color="#515590"/>
<stop offset="0.710938" stop-color="#50548F"/>
<stop offset="0.714844" stop-color="#4F548F"/>
<stop offset="0.71875" stop-color="#4F538E"/>
<stop offset="0.722656" stop-color="#4E528D"/>
<stop offset="0.726562" stop-color="#4D518D"/>
<stop offset="0.730469" stop-color="#4C508C"/>
<stop offset="0.734375" stop-color="#4B4F8B"/>
<stop offset="0.738281" stop-color="#4A4E8B"/>
<stop offset="0.742188" stop-color="#494D8A"/>
<stop offset="0.746094" stop-color="#484C89"/>
<stop offset="1" stop-color="#484C89"/>
</radialGradient>
</defs>
</svg>
