<svg width="65" height="64" viewBox="0 0 65 64" fill="none" xmlns="http://www.w3.org/2000/svg">
<path d="M53.8054 34.6079C51.7547 34.6186 49.9787 35.1106 48.4907 35.8452C47.9467 34.7586 47.3947 33.8026 47.3027 33.0919C47.1947 32.2626 47.0694 31.7666 47.2 30.7786C47.3307 29.7906 47.9027 28.3906 47.8947 28.2852C47.8867 28.1799 47.7667 27.6772 46.584 27.6679C45.4014 27.6599 44.3894 27.8959 44.2707 28.2079C44.152 28.5199 43.924 29.2226 43.7827 29.9559C43.576 31.0279 41.4214 34.8532 40.1987 36.8532C39.7987 36.0719 39.4587 35.3839 39.388 34.8399C39.28 34.0106 39.1547 33.5146 39.2854 32.5266C39.416 31.5386 39.988 30.1386 39.98 30.0332C39.972 29.9279 39.852 29.4252 38.6694 29.4159C37.4867 29.4079 36.4747 29.6439 36.356 29.9559C36.2374 30.2679 36.1094 30.9972 35.868 31.7039C35.6254 32.4092 32.7627 38.7892 32.012 40.4439C31.6294 41.2866 31.2974 41.9639 31.0627 42.4252L31.0614 42.4226C31.0614 42.4226 31.0467 42.4532 31.0227 42.5052C30.8214 42.8986 30.7027 43.1159 30.7027 43.1159C30.7027 43.1159 30.704 43.1186 30.7067 43.1239C30.5467 43.4132 30.376 43.6812 30.292 43.6812C30.2334 43.6812 30.1147 42.9119 30.3174 41.8559C30.744 39.6426 31.7667 36.1919 31.7574 36.0719C31.752 36.0106 31.948 35.4092 31.0894 35.0946C30.2547 34.7892 29.9574 35.2986 29.8814 35.2999C29.808 35.3012 29.7534 35.4799 29.7534 35.4799C29.7534 35.4799 30.6827 31.5986 27.98 31.5986C26.2894 31.5986 23.948 33.4479 22.7947 35.1239C22.0667 35.5212 20.508 36.3719 18.856 37.2799C18.2214 37.6292 17.5734 37.9852 16.9587 38.3239C16.9174 38.2772 16.8747 38.2319 16.832 38.1852C13.5534 34.6879 7.4947 32.2146 7.7507 27.5119C7.84403 25.8026 8.4387 21.3012 19.3947 15.8426C28.3694 11.3706 35.5547 12.6012 36.796 15.3279C38.5694 19.2252 32.956 26.4666 23.636 27.5119C20.0854 27.9106 18.2147 26.5332 17.7494 26.0212C17.26 25.4812 17.1867 25.4572 17.004 25.5586C16.7067 25.7239 16.8947 26.1999 17.004 26.4839C17.2827 27.2079 18.424 28.4919 20.3707 29.1319C22.084 29.6946 26.2534 30.0026 31.2947 28.0519C36.9427 25.8679 41.352 19.7906 40.056 14.7119C38.7387 9.54658 30.1734 7.84791 22.0667 10.7279C17.236 12.4426 12.0134 15.1332 8.25736 18.6452C3.79203 22.8212 3.08003 26.4572 3.37337 27.9759C4.41603 33.3732 11.8547 36.8879 14.8334 39.4919C14.6867 39.5732 14.548 39.6492 14.4227 39.7186C12.9294 40.4572 7.2587 43.4252 5.84003 46.5599C4.2307 50.1159 6.09603 52.6679 7.3307 53.0119C11.156 54.0759 15.0814 52.1612 17.192 49.0146C19.3014 45.8692 19.044 41.7719 18.076 39.9026C18.064 39.8799 18.0507 39.8572 18.0387 39.8332C18.424 39.6052 18.8174 39.3732 19.2067 39.1439C19.9667 38.6972 20.7134 38.2812 21.36 37.9292C20.9974 38.9212 20.732 40.1119 20.5947 41.8306C20.432 43.8492 21.26 46.4586 22.3427 47.4852C22.82 47.9372 23.3934 47.9479 23.756 47.9479C25.016 47.9479 25.5907 46.8999 26.224 45.6599C27 44.1399 27.6894 42.3692 27.6894 42.3692C27.6894 42.3692 26.8254 47.1506 29.18 47.1506C30.0387 47.1506 30.9014 46.0372 31.2867 45.4706C31.288 45.4772 31.288 45.4799 31.288 45.4799C31.288 45.4799 31.3107 45.4426 31.3547 45.3692C31.444 45.2332 31.4947 45.1466 31.4947 45.1466C31.4947 45.1466 31.496 45.1372 31.4987 45.1212C31.844 44.5226 32.6094 43.1572 33.756 40.9052C35.2387 37.9959 36.66 34.3506 36.66 34.3506C36.66 34.3506 36.792 35.2412 37.2254 36.7159C37.48 37.5826 38.0214 38.5412 38.4494 39.4612C38.1054 39.9386 37.8947 40.2119 37.8947 40.2119C37.8947 40.2119 37.896 40.2172 37.9 40.2266C37.6254 40.5919 37.3174 40.9852 36.9947 41.3692C35.824 42.7626 34.4307 44.3546 34.244 44.8132C34.024 45.3546 34.076 45.7519 34.5014 46.0732C34.812 46.3066 35.364 46.3439 35.9414 46.3052C36.9934 46.2346 37.732 45.9732 38.0974 45.8146C38.6667 45.6132 39.3294 45.2972 39.9507 44.8399C41.0987 43.9959 41.7907 42.7892 41.724 41.1892C41.6867 40.3079 41.4067 39.4346 41.0507 38.6106C41.1547 38.4612 41.2587 38.3092 41.364 38.1572C43.1734 35.5119 44.5774 32.6052 44.5774 32.6052C44.5774 32.6052 44.7094 33.4959 45.1427 34.9706C45.3614 35.7159 45.7947 36.5306 46.184 37.3279C44.4827 38.7106 43.428 40.3172 43.0614 41.3706C42.384 43.3199 42.9147 44.2026 43.9094 44.4039C44.36 44.4946 44.9974 44.2879 45.476 44.0852C46.072 43.8879 46.788 43.5586 47.4574 43.0666C48.6054 42.2226 49.7094 41.0412 49.6427 39.4426C49.612 38.7146 49.4147 37.9919 49.1467 37.2986C50.5894 36.6972 52.456 36.3639 54.8347 36.6412C59.9374 37.2372 60.9374 40.4226 60.7467 41.7559C60.5547 43.0892 59.4854 43.8226 59.1267 44.0439C58.7694 44.2652 58.66 44.3426 58.6894 44.5066C58.7334 44.7452 58.8987 44.7372 59.204 44.6852C59.624 44.6146 61.8827 43.6012 61.98 41.1399C62.1014 38.0119 59.108 34.5799 53.8054 34.6079ZM14.476 47.8666C12.7854 49.7106 10.4254 50.4066 9.41203 49.8199C8.3187 49.1866 8.75203 46.4719 10.8254 44.5146C12.0894 43.3226 13.7214 42.2239 14.804 41.5479C15.0507 41.3999 15.412 41.1826 15.852 40.9186C15.9254 40.8772 15.9667 40.8546 15.9667 40.8546L15.9654 40.8519C16.0507 40.8012 16.1374 40.7492 16.2267 40.6946C16.9827 43.4799 16.2507 45.9319 14.476 47.8666ZM26.7894 39.4972C26.2014 40.9319 24.9694 44.6039 24.2187 44.4066C23.5747 44.2372 23.1827 41.4466 24.0907 38.6999C24.5467 37.3172 25.5227 35.6652 26.096 35.0239C27.0187 33.9919 28.0347 33.6546 28.2814 34.0732C28.5947 34.6066 27.1587 38.5972 26.7894 39.4972ZM36.9614 44.3506C36.712 44.4812 36.4827 44.5626 36.3774 44.4999C36.2987 44.4532 36.48 44.2812 36.48 44.2812C36.48 44.2812 37.752 42.9119 38.2534 42.2892C38.5454 41.9266 38.8827 41.4959 39.2507 41.0159C39.2534 41.0639 39.2547 41.1119 39.2547 41.1586C39.252 42.7986 37.668 43.9052 36.9614 44.3506ZM44.7974 42.5639C44.6107 42.4319 44.6427 42.0039 45.2547 40.6692C45.4947 40.1452 46.044 39.2639 46.996 38.4212C47.1067 38.7679 47.1734 39.0999 47.172 39.4092C47.16 41.4732 45.688 42.2439 44.7974 42.5639Z" fill="#F06292"/>
</svg>
