<svg width="64" height="64" viewBox="0 0 64 64" fill="none" xmlns="http://www.w3.org/2000/svg">
<mask id="mask0_35_817" style="mask-type:luminance" maskUnits="userSpaceOnUse" x="5" y="1" width="54" height="62">
<path d="M5.06348 1.40723H58.9515V62.5912H5.06348V1.40723Z" fill="white"/>
</mask>
<g mask="url(#mask0_35_817)">
<path d="M9.95526 56.4554L5.0481 1.43555H58.9666L54.0556 56.4477L31.9729 62.5645L9.95526 56.4554Z" fill="#E44D26"/>
</g>
<path d="M49.8497 52.9447L54.0481 5.93506H32.0076V57.8906L49.8497 52.9447Z" fill="#F16529"/>
<path d="M31.9846 12.6821H15.0806L16.9017 33.0883H32.0076V26.341H23.0759L22.4586 19.4313H32.0076V12.6821H31.9846ZM32.0076 43.8435L31.9789 43.8511L24.4612 41.8225L23.9836 36.441H17.2036L18.1496 47.0358L31.9769 50.8565L32.0076 50.8468V43.8435Z" fill="#EBEBEB"/>
<path d="M31.9845 33.0883H40.297L39.5327 41.8376L32.0037 43.8683V50.8888L45.8425 47.0548L47.6962 26.3371H32.0075L31.9845 33.0883ZM48.7319 14.4931L48.8924 12.6821H31.9807V19.4293H48.2847L48.4185 17.9126L48.7319 14.4931Z" fill="white"/>
</svg>
