<svg width="64" height="64" viewBox="0 0 64 64" fill="none" xmlns="http://www.w3.org/2000/svg">
<mask id="mask0_35_826" style="mask-type:luminance" maskUnits="userSpaceOnUse" x="2" y="3" width="61" height="60">
<path d="M2.4751 3.79785H62.4509V62.3365H2.4751V3.79785Z" fill="white"/>
</mask>
<g mask="url(#mask0_35_826)">
<path fill-rule="evenodd" clip-rule="evenodd" d="M57.725 49.0792C54.464 48.9884 51.934 49.3226 49.8137 50.2146C49.2032 50.4599 48.2233 50.4599 48.1428 51.2282C48.4692 51.5507 48.5085 52.0784 48.7945 52.5254C49.2835 53.3364 50.1408 54.4292 50.915 54.9959L53.5243 56.8607C55.1147 57.8326 56.9088 58.4002 58.458 59.3731C59.3555 59.9407 60.2522 60.6702 61.1497 61.2787C61.6067 61.6031 61.8837 62.1307 62.4548 62.3324V62.2097C62.1697 61.8464 62.0875 61.3196 61.8032 60.9127L60.5785 59.7382C59.3967 58.1577 57.928 56.7789 56.3377 55.6454C55.0325 54.7534 52.179 53.5381 51.6488 52.0394L51.5685 51.9486C52.4642 51.8577 53.5243 51.5426 54.3817 51.2991C55.7692 50.9357 57.0322 51.0157 58.458 50.6516L60.4167 50.0837V49.7206C59.6828 48.9911 59.1527 48.0182 58.3785 47.3297C56.2993 45.5467 54.0143 43.8037 51.649 42.3451C50.3848 41.5347 48.7535 41.0071 47.408 40.3194C46.9173 40.0761 46.1028 39.9544 45.8177 39.5492C45.082 38.6591 44.6753 37.4827 44.1452 36.4282L40.8018 29.3771C40.0678 27.7966 39.6182 26.216 38.7225 24.7574C34.5218 17.8679 29.9538 13.6942 22.94 9.60038C21.4318 8.74921 19.6377 8.38321 17.7303 7.93821L14.6722 7.77471C14.0187 7.49121 13.367 6.72105 12.7957 6.35588C10.4715 4.89721 4.47666 1.73621 2.76299 5.90171C1.66166 8.53588 4.39432 11.129 5.32216 12.467C6.01666 13.3989 6.91249 14.4525 7.40316 15.5062C7.67749 16.1947 7.76882 16.925 8.05482 17.6544C8.70649 19.4374 9.31899 21.4239 10.1753 23.086C10.6323 23.9372 11.1122 24.83 11.6833 25.5994C12.0097 26.0535 12.5808 26.2479 12.7025 26.9772C12.1312 27.7884 12.092 29.0029 11.7657 30.0174C10.2968 34.5971 10.8682 40.2704 12.9475 43.6421C13.601 44.6549 15.141 46.8847 17.2303 46.0327C19.0657 45.3034 18.6562 42.9936 19.1863 40.9671C19.3097 40.4811 19.2273 40.1569 19.4713 39.8317V39.9226L21.144 43.2861C22.408 45.2716 24.6107 47.3389 26.445 48.7177C27.423 49.4471 28.198 50.7042 29.421 51.1492V51.0266H29.3405C29.0957 50.6632 28.7282 50.4999 28.4018 50.2164C27.668 49.4871 26.8527 48.5951 26.2815 47.7849C24.5697 45.5159 23.0615 43.0026 21.7152 40.4094C21.0617 39.1532 20.4905 37.7752 19.9622 36.5191C19.7155 36.0322 19.7155 35.3019 19.3087 35.0604C18.6963 35.9506 17.8007 36.7226 17.35 37.8162C16.575 39.5582 16.4945 41.7064 16.2095 43.9354C16.0448 43.9764 16.118 43.9354 16.0448 44.0262C14.7415 43.7029 14.2918 42.3641 13.803 41.2306C12.58 38.3529 12.3753 33.7332 13.4355 30.4097C13.7207 29.5587 14.9453 26.8837 14.4565 26.0735C14.2097 25.3032 13.3962 24.8582 12.9465 24.2495C12.4165 23.4794 11.847 22.5074 11.4797 21.6564C10.5017 19.3855 10.0127 16.874 8.95149 14.6042C8.46066 13.5505 7.60532 12.456 6.91149 11.4842C6.13649 10.3897 5.28199 9.61938 4.66949 8.32321C4.46566 7.86905 4.18049 7.14788 4.50682 6.66105C4.58732 6.33688 4.75182 6.20688 5.07632 6.13421C5.60632 5.68005 7.11632 6.25588 7.64632 6.49755C9.15449 7.10621 10.4185 7.67288 11.6825 8.52305C12.2537 8.92821 12.8662 9.69838 13.6 9.90188H14.4573C15.7625 10.1854 17.2295 9.99271 18.4515 10.356C20.613 11.0464 22.5698 12.0582 24.3247 13.1537C29.666 16.5172 34.0713 21.2994 37.0472 27.0145C37.5362 27.9464 37.74 28.7976 38.1897 29.7704C39.047 31.7567 40.1072 33.7824 40.9618 35.7289C41.8192 37.6336 42.6343 39.5801 43.8573 41.1606C44.4697 42.0116 46.9155 42.4567 48.0158 42.9027C48.832 43.2661 50.0952 43.5931 50.831 44.0381C52.2165 44.8892 53.603 45.8619 54.9073 46.7939C55.559 47.2789 57.599 48.2926 57.7205 49.1011L57.725 49.0792ZM16.139 13.8622C15.5732 13.8572 15.0163 13.9247 14.4683 14.0647V14.1555H14.5487C14.875 14.804 15.4462 15.25 15.8538 15.8177L16.7925 17.7634L16.873 17.6725C17.4442 17.2674 17.7302 16.6189 17.7302 15.647C17.4853 15.3635 17.445 15.0794 17.2413 14.7959C16.9963 14.3909 16.4662 14.1874 16.139 13.864V13.8622Z" fill="#00678C"/>
</g>
</svg>
