<svg width="64" height="64" viewBox="0 0 64 64" fill="none" xmlns="http://www.w3.org/2000/svg">
<mask id="mask0_35_760" style="mask-type:luminance" maskUnits="userSpaceOnUse" x="1" y="1" width="62" height="62">
<path d="M1.88306 1.88379H62.1071V62.1078H1.88306V1.88379Z" fill="white"/>
</mask>
<g mask="url(#mask0_35_760)">
<path d="M62.1071 53.7435C62.1071 58.364 58.3632 62.1078 53.7427 62.1078H10.2476C5.62872 62.1078 1.88306 58.364 1.88306 53.7435V10.2483C1.88306 5.62779 5.62872 1.88379 10.2476 1.88379H53.7427C58.3632 1.88379 62.1071 5.62779 62.1071 10.2483V53.7435Z" fill="#673AB7"/>
</g>
<path d="M47.1019 34.6722C46.0145 33.1666 44.442 32.1294 42.4179 31.5774C42.4179 31.5774 44.1242 30.9584 45.6632 28.6499C46.5834 27.1777 47.0517 25.4044 47.0517 23.3301C47.0517 19.7334 45.7469 16.9731 43.1372 15.0827C40.5275 13.1924 37.5832 11.9209 32.5812 11.9209H16.9397V52.0702H34.388C39.1222 52.0367 42.6855 51.0164 45.1112 49.0591C47.5202 47.0684 48.7247 44.1241 48.7247 40.1927C48.7247 38.0181 48.1894 36.1779 47.1019 34.6722ZM26.977 18.6126C26.977 18.6126 33.953 18.6126 34.0869 18.6126C36.6297 18.6126 38.6874 20.6701 38.6874 23.2129C38.6874 25.7557 36.6297 27.8134 34.0869 27.8134C33.953 27.8134 26.977 27.8134 26.977 27.8134V18.6126ZM35.3415 45.3787H26.977V35.3414H35.3415C38.1185 35.3414 40.3602 37.5831 40.3602 40.3601C40.3602 43.1371 38.1185 45.3787 35.3415 45.3787Z" fill="white"/>
</svg>
