<svg width="64" height="64" viewBox="0 0 64 64" fill="none" xmlns="http://www.w3.org/2000/svg">
<mask id="mask0_35_808" style="mask-type:luminance" maskUnits="userSpaceOnUse" x="4" y="1" width="56" height="62">
<path d="M4.82837 1.64062H59.1644V62.3446H4.82837V1.64062Z" fill="white"/>
</mask>
<g mask="url(#mask0_35_808)">
<path d="M59.1563 1.64062H4.83667L9.6295 55.9548L31.9965 62.3446L54.3635 55.9548L59.1563 1.64062Z" fill="#0277BD"/>
</g>
<path d="M31.9971 6.43408V57.3934L49.8906 52.2814L53.8847 6.43408H31.9971Z" fill="#039BE5"/>
<path d="M46.5356 14.4214H31.9971V20.8112H39.8256L39.3462 27.2011H31.9971V33.5911H39.0267L38.5474 40.7797L31.9971 43.0161V49.7256L44.6184 45.5721L45.7367 27.2011L46.5356 14.4214Z" fill="white"/>
<path d="M31.9972 14.4214V20.8112H17.7782L17.2988 14.4214H31.9972ZM24.648 27.2011L24.9675 33.5911H31.9972V27.2011H24.648ZM25.287 36.7859H18.8965L19.3758 45.5721L31.9972 49.7256V43.0161L25.4468 40.7797L25.287 36.7859Z" fill="#EEEEEE"/>
</svg>
