<svg width="64" height="64" viewBox="0 0 64 64" fill="none" xmlns="http://www.w3.org/2000/svg">
<mask id="mask0_35_730" style="mask-type:luminance" maskUnits="userSpaceOnUse" x="2" y="2" width="43" height="46">
<path d="M2.60254 2.61816H44.4159V47.4888H2.60254V2.61816Z" fill="white"/>
</mask>
<g mask="url(#mask0_35_730)">
<path d="M32.7699 2.61828C30.3651 2.62595 28.6979 2.83778 26.6827 3.18561C20.7319 4.22145 19.6477 6.39695 19.6477 10.4059V16.5331H33.5662V19.6254H12.3916C8.31491 19.6254 4.74708 21.5456 3.61658 26.1484C2.33925 31.4315 2.28191 34.7401 3.61658 40.2566C4.62958 44.3708 6.86125 47.4553 10.9392 47.4553H16.5562V39.564C16.5562 34.9783 20.7102 30.4481 25.4704 30.4481H36.6609C40.5627 30.4481 44.3934 27.5693 44.3934 23.6808V10.4059C44.3934 6.63495 41.6731 3.81495 37.8702 3.18261C37.9646 3.17328 35.1546 2.60895 32.7699 2.61828ZM25.0621 8.80261C26.3317 8.80261 27.3819 9.84928 27.3819 11.1249C27.3819 12.4128 26.3317 13.4409 25.0621 13.4409C23.7676 13.4409 22.7422 12.4143 22.7422 11.1249C22.7422 9.85395 23.7676 8.80261 25.0621 8.80261Z" fill="#0277BD"/>
</g>
<mask id="mask1_35_730" style="mask-type:luminance" maskUnits="userSpaceOnUse" x="19" y="16" width="43" height="46">
<path d="M19.6267 16.5122H61.44V61.3695H19.6267V16.5122Z" fill="white"/>
</mask>
<g mask="url(#mask1_35_730)">
<path d="M31.2712 61.3699C33.676 61.362 35.3432 61.1502 37.3584 60.8024C43.3094 59.7665 44.3934 57.5912 44.3934 53.582V47.4549H30.4749V44.3627H51.6512C55.7279 44.3627 59.2955 42.4424 60.426 37.8397C61.7035 32.5565 61.7607 29.2479 60.426 23.7314C59.4115 19.6172 57.18 16.5327 53.1019 16.5327H47.4849V24.424C47.4849 29.0099 43.331 33.5399 38.5709 33.5399H27.3802C23.4784 33.5399 19.6477 36.4187 19.6477 40.3072V53.582C19.6477 57.353 22.368 60.173 26.1709 60.8055C26.0765 60.8147 28.8865 61.379 31.2712 61.3699ZM38.9807 55.1854C37.7109 55.1854 36.6609 54.1387 36.6609 52.8632C36.6609 51.5752 37.7109 50.547 38.9807 50.547C40.275 50.547 41.3004 51.5737 41.3004 52.8632C41.3004 54.134 40.2735 55.1854 38.9807 55.1854Z" fill="#FFC107"/>
</g>
</svg>
